<svg width="15" height="17" viewBox="0 0 15 17" fill="none" xmlns="http://www.w3.org/2000/svg">
<path d="M9.6247 6.31719C10.0201 7.14219 10.4552 7.93195 10.9573 8.72932C11.5644 7.79251 12.2635 6.8201 13.1019 5.73523C11.8332 6.00796 10.7004 6.20059 9.6247 6.31719Z" fill="white"/>
<path d="M9.30779 6.3495C8.09097 6.4656 6.93846 6.48301 5.73262 6.40779C5.5113 6.85027 5.27641 7.27564 5.02539 7.69054C4.67697 8.26643 4.29787 8.82146 3.88159 9.37347C4.4851 10.2167 5.00895 11.0461 5.49534 11.9198C6.12114 11.8595 6.73037 11.8277 7.33674 11.8251C7.94691 11.8225 8.55353 11.8495 9.17062 11.9067C9.6477 10.9131 10.166 9.97566 10.7788 9.008C10.2183 8.12873 9.73983 7.26107 9.30779 6.3495Z" fill="white"/>
<path d="M9.30779 6.3495C9.73983 7.26107 10.2183 8.12873 10.7788 9.008L10.9573 8.72932C10.4552 7.93195 10.0201 7.14219 9.6247 6.31719L9.30779 6.3495Z" fill="white"/>
<path d="M9.17317 6.06079C8.05346 6.16255 6.98613 6.17931 5.87549 6.11582L5.73262 6.40779C6.93846 6.48301 8.09097 6.4656 9.30779 6.3495L9.17317 6.06079Z" fill="white"/>
<path d="M9.17317 6.06079C8.55791 4.71955 8.03311 3.27287 7.48914 1.54942C7.01958 3.33792 6.50266 4.80548 5.87549 6.11582C6.98613 6.17931 8.05346 6.16255 9.17317 6.06079Z" fill="white"/>
<path d="M5.40791 6.3854C4.03949 6.2822 2.59027 6.06243 0.892751 5.73473C2.0142 6.96929 2.92152 8.05953 3.69744 9.11912C4.08645 8.59879 4.44151 8.07606 4.76871 7.53524C4.9942 7.16256 5.20662 6.781 5.40791 6.3854Z" fill="white"/>
<path d="M3.88159 9.37347C4.29787 8.82146 4.67697 8.26643 5.02539 7.69054C5.27641 7.27564 5.5113 6.85027 5.73262 6.40779L5.40791 6.3854C5.20662 6.781 4.9942 7.16256 4.76871 7.53524C4.44151 8.07606 4.08645 8.59879 3.69744 9.11912L3.88159 9.37347Z" fill="white"/>
<path d="M3.69094 9.62276C2.91424 10.6245 2.01168 11.6251 0.9443 12.7317C2.51 12.3583 3.87972 12.0968 5.17042 11.9535C4.72164 11.1564 4.23959 10.3947 3.69094 9.62276Z" fill="white"/>
<path d="M5.49534 11.9198C5.00895 11.0461 4.4851 10.2167 3.88159 9.37347L3.69094 9.62276C4.23959 10.3947 4.72164 11.1564 5.17042 11.9535L5.49534 11.9198Z" fill="white"/>
<path d="M5.6527 12.2064C6.28154 13.3676 6.85366 14.616 7.46464 16.0829C7.99436 14.611 8.48986 13.36 9.0338 12.1956C8.46328 12.146 7.90193 12.1227 7.33802 12.1251C6.78303 12.1274 6.225 12.1547 5.6527 12.2064Z" fill="white"/>
<path d="M9.48825 11.9387C10.7505 12.0761 12.0659 12.3384 13.552 12.7306C12.513 11.4866 11.6706 10.3729 10.9583 9.28578C10.404 10.1701 9.92795 11.0316 9.48825 11.9387Z" fill="white"/>
<path d="M10.7788 9.008C10.166 9.97566 9.6477 10.9131 9.17062 11.9067L9.48825 11.9387C9.92795 11.0316 10.404 10.1701 10.9583 9.28578L10.7788 9.008Z" fill="white"/>
<path fill-rule="evenodd" clip-rule="evenodd" d="M7.61819 0.955741L7.4595 0.441406L7.32931 0.963685C6.81544 3.02521 6.25199 4.65757 5.55234 6.09518C4.04308 5.98878 2.4384 5.73746 0.50411 5.35285L0.0531658 5.26318L0.364471 5.60153C1.64832 6.99691 2.65813 8.20019 3.50818 9.36863C2.64457 10.4911 1.61815 11.6141 0.367523 12.8952L0 13.2717L0.510796 13.1456C2.33585 12.6952 3.88331 12.3905 5.32843 12.2382C6.02712 13.5145 6.65231 14.8935 7.33612 16.557L7.48509 16.9194L7.61621 16.5502C8.20802 14.8836 8.74853 13.5037 9.35099 12.2259C10.7542 12.371 12.2251 12.6742 13.9351 13.1446L14.4037 13.2735L14.0892 12.9029C12.8769 11.474 11.9244 10.2261 11.1349 9.00738C11.814 7.94946 12.6098 6.84935 13.593 5.59238L13.8512 5.26232L13.4422 5.35356C11.9765 5.68056 10.6978 5.90409 9.48929 6.02996C8.80133 4.54636 8.22902 2.93548 7.61819 0.955741ZM9.17317 6.06079C8.55791 4.71955 8.03311 3.27287 7.48914 1.54942C7.01958 3.33792 6.50266 4.80548 5.87549 6.11582L5.73262 6.40779L5.40791 6.3854C4.03949 6.2822 2.59027 6.06243 0.892751 5.73473C2.0142 6.96929 2.92152 8.05953 3.69744 9.11912L3.88159 9.37347L3.69094 9.62276C2.91424 10.6245 2.01168 11.6251 0.9443 12.7317C2.51 12.3583 3.87972 12.0968 5.17042 11.9535L5.49534 11.9198L5.6527 12.2064C6.28154 13.3676 6.85366 14.616 7.46464 16.0829C7.99436 14.611 8.48986 13.36 9.0338 12.1956L9.17062 11.9067L9.48825 11.9387C10.7505 12.0761 12.0659 12.3384 13.552 12.7306C12.513 11.4866 11.6706 10.3729 10.9583 9.28578L10.7788 9.008L10.9573 8.72932C11.5644 7.79251 12.2635 6.8201 13.1019 5.73523C11.8332 6.00796 10.7004 6.20059 9.6247 6.31719L9.30779 6.3495L9.17317 6.06079Z" fill="white"/>
<path d="M9.17062 11.9067C8.55353 11.8495 7.94691 11.8225 7.33674 11.8251C6.73037 11.8277 6.12114 11.8595 5.49534 11.9198L5.6527 12.2064C6.225 12.1547 6.78303 12.1274 7.33802 12.1251C7.90193 12.1227 8.46328 12.146 9.0338 12.1956L9.17062 11.9067Z" fill="white"/>
</svg>
